<svg width="78" height="80" viewBox="0 0 78 80" fill="none" xmlns="http://www.w3.org/2000/svg">
<mask id="mask0_90_1333" style="mask-type:alpha" maskUnits="userSpaceOnUse" x="0" y="0" width="78" height="80">
<rect width="78" height="80" fill="#D9D9D9"/>
</mask>
<g mask="url(#mask0_90_1333)">
<path d="M27.3 56.6667L39 44.6667L50.7 56.6667L55.25 52.0001L43.55 40.0001L55.25 28.0001L50.7 23.3334L39 35.3334L27.3 23.3334L22.75 28.0001L34.45 40.0001L22.75 52.0001L27.3 56.6667ZM39 73.3334C34.5042 73.3334 30.2792 72.4584 26.325 70.7084C22.3708 68.9584 18.9312 66.5834 16.0062 63.5834C13.0812 60.5834 10.7656 57.0556 9.05938 53.0001C7.35312 48.9445 6.5 44.6112 6.5 40.0001C6.5 35.389 7.35312 31.0556 9.05938 27.0001C10.7656 22.9445 13.0812 19.4167 16.0062 16.4167C18.9312 13.4167 22.3708 11.0417 26.325 9.29175C30.2792 7.54175 34.5042 6.66675 39 6.66675C43.4958 6.66675 47.7208 7.54175 51.675 9.29175C55.6292 11.0417 59.0688 13.4167 61.9938 16.4167C64.9188 19.4167 67.2344 22.9445 68.9406 27.0001C70.6469 31.0556 71.5 35.389 71.5 40.0001C71.5 44.6112 70.6469 48.9445 68.9406 53.0001C67.2344 57.0556 64.9188 60.5834 61.9938 63.5834C59.0688 66.5834 55.6292 68.9584 51.675 70.7084C47.7208 72.4584 43.4958 73.3334 39 73.3334ZM39 66.6667C46.2583 66.6667 52.4062 64.0834 57.4438 58.9167C62.4813 53.7501 65 47.4445 65 40.0001C65 32.5556 62.4813 26.2501 57.4438 21.0834C52.4062 15.9167 46.2583 13.3334 39 13.3334C31.7417 13.3334 25.5938 15.9167 20.5563 21.0834C15.5188 26.2501 13 32.5556 13 40.0001C13 47.4445 15.5188 53.7501 20.5563 58.9167C25.5938 64.0834 31.7417 66.6667 39 66.6667Z" fill="#FF6DD6"/>
</g>
</svg>
