<svg width="79" height="81" viewBox="0 0 79 81" fill="none" xmlns="http://www.w3.org/2000/svg">
<mask id="mask0_155_1591" style="mask-type:alpha" maskUnits="userSpaceOnUse" x="0" y="0" width="79" height="81">
<rect width="79" height="81" fill="#D9D9D9"/>
</mask>
<g mask="url(#mask0_155_1591)">
<path d="M34.8916 56.025L58.0979 32.2313L53.4896 27.5063L34.8916 46.575L25.5104 36.9562L20.9021 41.6813L34.8916 56.025ZM39.5 74.25C34.9465 74.25 30.6673 73.3641 26.6625 71.5922C22.6576 69.8203 19.1739 67.4156 16.2114 64.3781C13.2489 61.3406 10.9036 57.7688 9.1755 53.6625C7.44738 49.5563 6.58331 45.1688 6.58331 40.5C6.58331 35.8312 7.44738 31.4438 9.1755 27.3375C10.9036 23.2312 13.2489 19.6594 16.2114 16.6219C19.1739 13.5844 22.6576 11.1797 26.6625 9.40781C30.6673 7.63594 34.9465 6.75 39.5 6.75C44.0535 6.75 48.3326 7.63594 52.3375 9.40781C56.3423 11.1797 59.826 13.5844 62.7885 16.6219C65.751 19.6594 68.0963 23.2312 69.8245 27.3375C71.5526 31.4438 72.4166 35.8312 72.4166 40.5C72.4166 45.1688 71.5526 49.5563 69.8245 53.6625C68.0963 57.7688 65.751 61.3406 62.7885 64.3781C59.826 67.4156 56.3423 69.8203 52.3375 71.5922C48.3326 73.3641 44.0535 74.25 39.5 74.25ZM39.5 67.5C46.8514 67.5 53.0781 64.8844 58.1802 59.6531C63.2823 54.4219 65.8333 48.0375 65.8333 40.5C65.8333 32.9625 63.2823 26.5781 58.1802 21.3469C53.0781 16.1156 46.8514 13.5 39.5 13.5C32.1486 13.5 25.9219 16.1156 20.8198 21.3469C15.7177 26.5781 13.1666 32.9625 13.1666 40.5C13.1666 48.0375 15.7177 54.4219 20.8198 59.6531C25.9219 64.8844 32.1486 67.5 39.5 67.5Z" fill="#62A2DE"/>
</g>
</svg>